<?xml version="1.0" encoding="utf-8"?>
<!-- Generator: Adobe Illustrator 27.7.0, SVG Export Plug-In . SVG Version: 6.00 Build 0)  -->
<svg version="1.1" id="Layer_1" xmlns="http://www.w3.org/2000/svg" xmlns:xlink="http://www.w3.org/1999/xlink" x="0px" y="0px"
	 viewBox="0 0 398.02 53.3" style="enable-background:new 0 0 398.02 53.3;" xml:space="preserve">
<metadata><?xpacket begin="﻿" id="W5M0MpCehiHzreSzNTczkc9d"?>
<x:xmpmeta xmlns:x="adobe:ns:meta/" x:xmptk="Adobe XMP Core 9.1-c001 79.a8d4753, 2023/03/23-08:56:37        ">
   <rdf:RDF xmlns:rdf="http://www.w3.org/1999/02/22-rdf-syntax-ns#">
      <rdf:Description rdf:about=""
            xmlns:dc="http://purl.org/dc/elements/1.1/"
            xmlns:xmp="http://ns.adobe.com/xap/1.0/"
            xmlns:xmpGImg="http://ns.adobe.com/xap/1.0/g/img/"
            xmlns:xmpMM="http://ns.adobe.com/xap/1.0/mm/"
            xmlns:stRef="http://ns.adobe.com/xap/1.0/sType/ResourceRef#"
            xmlns:stEvt="http://ns.adobe.com/xap/1.0/sType/ResourceEvent#"
            xmlns:illustrator="http://ns.adobe.com/illustrator/1.0/"
            xmlns:xmpTPg="http://ns.adobe.com/xap/1.0/t/pg/"
            xmlns:stDim="http://ns.adobe.com/xap/1.0/sType/Dimensions#"
            xmlns:stFnt="http://ns.adobe.com/xap/1.0/sType/Font#"
            xmlns:xmpG="http://ns.adobe.com/xap/1.0/g/"
            xmlns:pdf="http://ns.adobe.com/pdf/1.3/"
            xmlns:pdfx="http://ns.adobe.com/pdfx/1.3/">
         <dc:format>image/svg+xml</dc:format>
         <dc:title>
            <rdf:Alt>
               <rdf:li xml:lang="x-default">chalkboard-logo</rdf:li>
            </rdf:Alt>
         </dc:title>
         <xmp:CreatorTool>Adobe Illustrator 27.7 (Macintosh)</xmp:CreatorTool>
         <xmp:CreateDate>2023-10-08T21:32:48+05:00</xmp:CreateDate>
         <xmp:ModifyDate>2023-10-08T21:32:48+05:00</xmp:ModifyDate>
         <xmp:MetadataDate>2023-10-08T21:32:48+05:00</xmp:MetadataDate>
         <xmp:Thumbnails>
            <rdf:Alt>
               <rdf:li rdf:parseType="Resource">
                  <xmpGImg:width>256</xmpGImg:width>
                  <xmpGImg:height>52</xmpGImg:height>
                  <xmpGImg:format>JPEG</xmpGImg:format>
                  <xmpGImg:image>/9j/4AAQSkZJRgABAgEASABIAAD/7QAsUGhvdG9zaG9wIDMuMAA4QklNA+0AAAAAABAASAAAAAEA&#xA;AQBIAAAAAQAB/+4ADkFkb2JlAGTAAAAAAf/bAIQABgQEBAUEBgUFBgkGBQYJCwgGBggLDAoKCwoK&#xA;DBAMDAwMDAwQDA4PEA8ODBMTFBQTExwbGxscHx8fHx8fHx8fHwEHBwcNDA0YEBAYGhURFRofHx8f&#xA;Hx8fHx8fHx8fHx8fHx8fHx8fHx8fHx8fHx8fHx8fHx8fHx8fHx8fHx8fHx8f/8AAEQgANAEAAwER&#xA;AAIRAQMRAf/EAaIAAAAHAQEBAQEAAAAAAAAAAAQFAwIGAQAHCAkKCwEAAgIDAQEBAQEAAAAAAAAA&#xA;AQACAwQFBgcICQoLEAACAQMDAgQCBgcDBAIGAnMBAgMRBAAFIRIxQVEGE2EicYEUMpGhBxWxQiPB&#xA;UtHhMxZi8CRygvElQzRTkqKyY3PCNUQnk6OzNhdUZHTD0uIIJoMJChgZhJRFRqS0VtNVKBry4/PE&#xA;1OT0ZXWFlaW1xdXl9WZ2hpamtsbW5vY3R1dnd4eXp7fH1+f3OEhYaHiImKi4yNjo+Ck5SVlpeYmZ&#xA;qbnJ2en5KjpKWmp6ipqqusra6voRAAICAQIDBQUEBQYECAMDbQEAAhEDBCESMUEFURNhIgZxgZEy&#xA;obHwFMHR4SNCFVJicvEzJDRDghaSUyWiY7LCB3PSNeJEgxdUkwgJChgZJjZFGidkdFU38qOzwygp&#xA;0+PzhJSktMTU5PRldYWVpbXF1eX1RlZmdoaWprbG1ub2R1dnd4eXp7fH1+f3OEhYaHiImKi4yNjo&#xA;+DlJWWl5iZmpucnZ6fkqOkpaanqKmqq6ytrq+v/aAAwDAQACEQMRAD8A9U4qxfzb+aH5feUGKeY9&#xA;dtbCcLz+qs5kuONKgiCIPLQ9vhxVj+lf85G/kpqlyLe281W8chp8V3HcWce5p/eXMcKfjir0aKWK&#xA;aJJYnWSKRQ8ciEMrKwqCCNiCMVSrzV5t8ueVNGl1rzDfJp+mwlVedwzfExoqqiBndj4KCcVXeV/N&#xA;Xl7zVosGteX71L/TLjkIrhAy7qaMrI4V0YHqGAOKprirsVdirsVdirFvOn5oeQvJMlnF5o1ePTpb&#xA;8kWsbJLKzBSAWKwpIVUE/aag98VZLBcQT28dxDIslvKgkilQgqyMKqwI2II3rirGPKf5q/l95u1S&#xA;80ry5rUOo39gC1zBGsi/AG4F0Z1RZEDEDkhI3HjirK8VdirFIfzU/L+bzm/kuPWoW8zR1DWHGQfE&#xA;q8mQSlfRLheqB+XttirK8VdirsVdirsVdirsVdirsVdirsVdirsVcSFBZjQDck9AMVYp5Q/NT8vv&#xA;OOoXmneWtah1G9sAWuYUWRCEDcC6GRUEiciByQkbjfcYqwP/AJyZ/OS78g+W7fTtEkEfmPWua282&#xA;xNtbpQSTAGo5ksFSvuf2cVfP/wCSv/OPutfmkbnzLr2pTWeimVla8P767vJ/2yjSE7KT8UjVqdgO&#xA;pCr0jzp/zhVoiaNNP5O1e9bVYULx2mpGGSOcgV9MSRRwemT2JDCvWnUKsF/5xk/NXzF5U89W3kbV&#xA;XlbRdTuTZGxmrys70sVUxq32OUnwOvvXqN1XrX/OapP/ACqvS/fXLev/AEiXWKqf/OGd1Bb/AJS6&#xA;tNdTLDBFrc/KSVgqKDaWnUsQBucVezaR588jazdfU9H8xaZqV2RUW9peW88lPHhG7Niqe4qhdS1X&#xA;TNLtWu9SvILG1WvK4uZEhjFAWNXcqv2VJxVJbT8zfy3vLhLa0816Nc3EleEMWoWru1AWNFWQk0Ar&#xA;irJAQRUbg9Dir4x/5zYJ/wCVj6MO36Hj2/6Op8VfRnkZ3/5UForcjyHlmGjV3FLIU+7FXy1/ziAS&#xA;PzjhANAdPugfcUU4q+3tS1PTdLspb7U7uGxsYBWa6uZFhiQE0qzuVVd/E4qusb+x1CzhvbC4iu7O&#xA;4USW9zA6yRSIejI6EqwPiDir4Z0En/obWU13/wAW3o+j63KMVfaes+d/Jmhzrb61r+naXcNusN7d&#xA;wW7kUB2WV1PRhiqZWGo6fqNql3p91FeWkorHcW7rLGw8VdCVOKojFUv1nzDoGh24uNa1O00y3bpN&#xA;eTx26HcD7UjKOrD78VUdE83eU9eZ10PWrDVWj/vBZXUNwV6dfSZqdRiqbYqpXV1a2kDXF1MkECU5&#xA;yysEQVNBVmIAqTTFWOxfml+WU0yQRebtFknkYJHEmo2jMzMaBQokqST2xVksM0M0STQussUgDRyI&#xA;Qysp3BBGxBxVCaxruiaJZ/XdZ1C20yyDBPrV5NHbxcm+yvOQqtTTYVxVQ1TzX5X0mygv9V1ix0+x&#xA;uqG2urq5hhilDDkPTeRlVqg12OKovTtS07U7OO9066hvbOYBorm3kWWJwRUFXQspHyOKobW/M3lv&#xA;Qokl1zVrPSopDSOS9uIrdWPgDKyg4ql1/wCY9A1vylrFzomqWmpwJZXHKaynjuEB9Jxu0TMOqnFX&#xA;yH/zhsT/AMrcl99Kua/8jIcVQv8Azl5qE91+clzBIxKWNjaQQg9ArIZjT/ZTHFX1x+TelW+l/lT5&#xA;TtLcUT9F2s7U2rJcRCeQ/TJIxxVmOKsIP5L/AJdHz6PPX6LA8wBvV9QSOIvXpT1/Srw9SnfpXenL&#xA;fFXm/wDzmr/5KzSv+25b/wDUHd4q8a/5x/8Aye1X8zNLvLTVNYubDyTpl0ZXtLYgNPfTRoGK8gyA&#xA;rFGlWZWpsANycVQX/OQf5KWn5Wapo91oV/c3Gm6kJDA9wU+sQz2xQn95EsYNfUBUhRShxV9Wf84/&#xA;+cdT82flNo2rapI1zqaLLbXUxoWla3laNXJPVmRVLE98VfL/AJc8p+fvz7/M3UZPMV1cWFjpzub4&#xA;yKxWxQuQlnBE5AVyRTfwLNU9VWa/m1/ziV5W8t+RdT8w+W9U1CS80qI3UtvftBKkkKEGQKYooCjK&#xA;lW71pT3xVHf84W+edXvU1ryjfXL3FnYxRXmmLISxhUuY5o1J6ISyEL0Br44qxL/nNj/yZGjf9saP&#xA;/qKuMVfRfkb/AMkBo3/gMxf9QQxV8p/84o6hY6d+apv7+dLWytdMvZrm4lYKkcaICzMx2AAxVNfz&#xA;L8++cfz5882/lbyfbyny/bSE2cBqiNQ8Xvrs/sqB9kH7I2A5Maqvq/8AKzyFD5D8jab5YjuWu2s1&#xA;dp7hqgPNM5kkKKfspyY8R4dd64q+EvPOo6zpv53eZb3RZHi1aLzDqH1GSIBpBK15Iq8AQfiqdsVf&#xA;QWlf84Y6XfaJ9a80+YtQk813a+rdTwtHJAkz7kMJUeWbiereovL2xV475M80+afyP/NqfR765Y6d&#xA;a3i22uWqlvQntmpxuFQ/tCJxJGevboTir6//ADq/Mcfl/wDl9fa/Cqyag5W10uN90a5mB4Fh3VFV&#xA;nI7haYq+Vvyf/KTXvzt1zU/Mvm3Wrn9H20ix3d5UPczzMOfowlwyRKiGv2aLUAL4Kpv+dn/OODfl&#xA;to8XnLybq17Ja2EsYuvWdVurcyMEjnjmgWHb1GCn4QRUdd8Ve1/84zfm3qH5geUbmDWXEuv6G8cN&#xA;5cABfWilDGGZgNgx4MrU8K98VeG+fNP/ADF/OH8+NQ8mzSzWWm6VdzRxQyBvq9nZwHh9aMVQGeZa&#xA;MD+0WArx6Ks78zf84X+ULbyzeT6LrGpNrdvbvLD9aaB7eWWNC3AokUbqHYUB5nj74qwv/nDjzzq9&#xA;p54m8oy3LyaPqVtNNDasSViuYaSc0B+zyjDhqddvDFWT/wDOctxMtv5Mtg5EMj6jI6di0Ytgp+gS&#xA;N9+KsC/Kj8j/ADb+cGgR6jqfmA6bomiD9F6RzhN0fgpI6JF6kAVB6gq1dzt2xV6z5I/L/Wv+cf8A&#xA;yX5z80arq8WqQi3jNjYQ+okJn5enE8gbozyyqnwj7PfsFXhn5aeQ/NH54+fr651rVZRHEv1nVtTc&#xA;eo6q7ERQwoSFXkahV+yqg+FCq9J/ND/nHO6/LTQp/Of5d65qCtp8TDVLa5aJpGt5DwkZWiSFGQA/&#xA;HG6Go3rtTFWJf84b/wDk3Jf+2Vc/8nIcVR//ADmd5XuLH8wrDzAqE2esWSRmSmwuLUlHWv8AxjaM&#xA;/fir6E/5xz852Pmf8p9DEUyve6Rbx6Zfw1HON7ZfTjLD/LiVWB7/AH4q9KnnhghknnkWKCJS8srk&#xA;KqqoqzMx2AA6nFXyPoH/ADkT+YHmX8/rG00W8MnlW+1FbCDSjGhjawD0ec/DzEnAGblWo+z9nbFW&#xA;ef8AOav/AJKzSv8AtuW//UHd4q1/zhSB/wAqs1U9/wBOT7/9GlriqTf85wf8o95W/wCYu5/5NJir&#xA;Kf8AnF7VLLSfyDTVL+T0bGwl1C5upTvxihdndvoVcVedxf8AORf51fmT5pk0H8tdOt9Nj4vJHJIk&#xA;cs8cCuoM9xJOWgUCo2CHdqDkaYqhvzA/JT87bjyjq/mLz/52Se0060e7OmRSzzozInNYjFxt4EYy&#xA;BVqobx3oKqoP/nCX/lPde/7ZX/YxFiqj/wA5sf8AkyNG/wC2NH/1FXGKvovyN/5IDRv/AAGYv+oI&#xA;Yq+D/I3lDzH5w8xQeXfL6F72+BWSrcI1hUhneVv5E4hj19gTTFWZCPzd+Qn5uxGQ+vJZFSxWqRX2&#xA;nzfaArWnIA+PF170xV94+Xdf0vzDodjrelS+vp+oQrPbyd+LDow7Mp2Ydjtir4MvLmztf+cmri5v&#xA;SBaQec5JLhm+yEXVCWLewG5xV+gmKvgn/nKi5t7z879YjtP3kkUdpBLw3JmFulVFOpHIL88Vez/8&#xA;5gaZqEX5SeWw1WWxvoI7ym4Dm0kQMT4cgRX3xVNP+cMbuzl/Ky9toiBcW+qzm5Xap9SGEox9iBT6&#xA;MVZp/wA5FXlnafkv5oe6YBJLZYYwaGsssqJGAPHkQfxxV4f/AM4P2tydY813lCLSO2tYnc7D1HeR&#xA;lH/Ao2KovzJ/zlF+YXmrzl/hT8rNNgPrTPBYXcqCW4uOCtWVRIywRR0Bf4wdhUkbjFVfV/yR/wCc&#xA;iPM9nPceefPUdrpojkkurSCWV14LXnytoEtrY/BUj4vbbfFXmP8Azid/5O3SP+Ye8/6hnxV6T/zn&#xA;P/0xP/b0/wCxPFXp/wDzipbLD+R2hSAAG4kvZGI7kXkse/0Jiq7/AJyntbi4/JDXvQBb0XtJZFWp&#xA;JRbqLl07CvI/LFXmH/ODl3aiPzfZ1Au2NjMB3aMCdf8AhWP44q98/Nu6tLX8rvNs10yrD+iL5Dyp&#xA;QtJbuiLv3ZmAHvir5L/5w3/8m5L/ANsq5/5OQ4q+tPzN/LfQfzC8rT6Dq4MdT6tleoAZLedQQsiV&#xA;69aMvdajbqFXyNN+Tv8AzkP+V2tTXvleK7nj6C/0U/WFnjVvhEtr8TtTlXi8ZHWlaE4q7WW/5yx8&#xA;/wAH6E1Wx1yW0kp6lvLZLpVvIOQAEr+naRuKmtHJHftir3L/AJx8/wCccx5AmPmLzDLHdeZ5YzFB&#xA;FCeUNpG4+MKxA5ysNmYbAVArUkqo3/nK/wAn+YvNH5ZQW+g2Muo3dhqcN7La26mSZolhnhb041qz&#xA;kNMuwFaYqu/5xT8m+YfK35YSwa7ZyWF5qGozX0dpOpjmSJooYV9RG+JSTATQitMVSb/nL7yV5p8y&#xA;eVdEm0DTbjVH0+7kNzb2kbTTBJkCq4iQF2AZaGg2+WKp5+TH5a6lD+QP+EPMcUmn3OsQXyXMLCk0&#xA;CXhdULKf2wpD0PTocVfPWjeRPz//ACc86yX+g6Dcam/F7Yz2dtLf2d1bllajrAPUQMVU78G2xV6T&#xA;L5b/AOckPzkshp/m0W/kzyqwWS4t0gaOW4YAOitBJJJPs1Kh2VQezMtAqkv/ADjR+W35neTfzfvY&#xA;9U0W4tdMjtJ7TUL+RSLV1JV4mt5SOE1ZI1+xuBWtNxiqO/5y7/Lbzx5g836Jq+g6NdarZmxFi5s4&#xA;mnaOZZ5JP3ioCUUrKPiPw++Kve/K/lnUrD8qNM8tXAVdTt9EisJlrVFnFqI2HIV2D7VxV84/84t/&#xA;lV+YOg/mhcanrmiXOl2On2s8Es92hjV5ZCqqsLHaXoTySq079KqvYv8AnI78oD+YPk71tMhDeZ9H&#xA;5TaZ0UzIf722LHb4wKpX9oDoCcVY1/ziHo35h6L5c1vTfM2nXWm6UlxFJpEF9E8EvqOH+s8EkAf0&#xA;/hjPSlSad8VePeZ/yB/MXzH+d+v2J0u5tNM1PU729TXGiZrJbeeV5o39bZGNHUFA3Ku1MVZjdeeP&#xA;+cufJ2m/4al8vNrDwKYbXXYLKbUZuCABWEluxibalDNFyP7W9cVQv5Jf844+ctU83w+dPzDhktbe&#xA;G4+vLaXbBru7ueXqK8yfEUQP8TB6M3SlDXFX07538naP5x8r3/lzV0LWV/HwLrTnG6kNHKhP7SOA&#xA;w/pir5M0/wDLv/nIb8lPMV1e+VbFtc0yeiytZxNdwXUaN8HrWkZ+sI68+q9KtxYiuKrvNFj/AM5N&#xA;/nPNbabq2gSaPpVvIH+ry28um2iyBaetJ9aLzSEBtqcqb0HXFX0p+Uf5U6R+Xfk8aDbyfW7m4Yza&#xA;peleJnmdeJoN+KKvwqK/iTir5V1j8mfzk/Knz7HrflHTrnVoLOZ20rUbGA3haKRWUpPAgZ1PpsVe&#xA;q0/lPTFXo0dx/wA5SfmtZHRdTsLfyT5eu1MepXptpbaZ4SSrx+lcSy3B5UOy8AR1YKd1WIflr+TX&#xA;5neRfz+0tIdKuLnS7K5k5a0qEWclhKjxs7SkemH9N/7snly6djir0P8A5zE8hea/Mul+Wr/QNNuN&#xA;UGly3cV1b2cTTzAXQhKOI4wzlR6BBIG1Rir0n8gvLOseWfyi8vaNrMBtdSgjnknt2ILJ9YupZ0Vq&#xA;dGCSio7HbFWZ63o2n63o97o+oxetYahBJbXMfjHKpVqHsd9j2xV8Zah+UP53flB51OseSrW61azU&#xA;slpfWMJuvVgc7w3VqgZwdhy+HjXdTUbKsvv9K/5yV/OiyTS/MWnw+UvLK/vbqMwSWhneIkxq0M8k&#xA;twx5rsDxTo3hiqE/5xS/K/z5oH5k6hqevaLd6VZ2ljNama7iaNZJpJY6LEW2kFEY8kqvvuMVfW2K&#xA;uxV2KuxV2KuxV2KuxV2KuxV2KuxV2KuxV2KuxV2KuxV2KuxV2KuxV2KuxV2KuxV2KuxV2KuxV2Ku&#xA;xV2KuxV2KuxV2KuxV2KuxV2KuxV2KuxV2KuxV2KuxV2KuxV2KuxV2KuxV2KuxV2KuxV2KuxV2Kux&#xA;V2KuxV//2Q==</xmpGImg:image>
               </rdf:li>
            </rdf:Alt>
         </xmp:Thumbnails>
         <xmpMM:RenditionClass>default</xmpMM:RenditionClass>
         <xmpMM:OriginalDocumentID>uuid:65E6390686CF11DBA6E2D887CEACB407</xmpMM:OriginalDocumentID>
         <xmpMM:DocumentID>xmp.did:684e1da7-7b21-4e66-a897-58fe83097d75</xmpMM:DocumentID>
         <xmpMM:InstanceID>xmp.iid:684e1da7-7b21-4e66-a897-58fe83097d75</xmpMM:InstanceID>
         <xmpMM:DerivedFrom rdf:parseType="Resource">
            <stRef:instanceID>uuid:26fb5113-46eb-8d47-9d2b-573ddb604d6c</stRef:instanceID>
            <stRef:documentID>xmp.did:f1171bb9-0012-4c38-ba14-5ca5c1d5f3a3</stRef:documentID>
            <stRef:originalDocumentID>uuid:65E6390686CF11DBA6E2D887CEACB407</stRef:originalDocumentID>
            <stRef:renditionClass>default</stRef:renditionClass>
         </xmpMM:DerivedFrom>
         <xmpMM:History>
            <rdf:Seq>
               <rdf:li rdf:parseType="Resource">
                  <stEvt:action>saved</stEvt:action>
                  <stEvt:instanceID>xmp.iid:f1171bb9-0012-4c38-ba14-5ca5c1d5f3a3</stEvt:instanceID>
                  <stEvt:when>2023-10-08T21:32:28+05:00</stEvt:when>
                  <stEvt:softwareAgent>Adobe Illustrator 27.7 (Macintosh)</stEvt:softwareAgent>
                  <stEvt:changed>/</stEvt:changed>
               </rdf:li>
               <rdf:li rdf:parseType="Resource">
                  <stEvt:action>saved</stEvt:action>
                  <stEvt:instanceID>xmp.iid:684e1da7-7b21-4e66-a897-58fe83097d75</stEvt:instanceID>
                  <stEvt:when>2023-10-08T21:32:48+05:00</stEvt:when>
                  <stEvt:softwareAgent>Adobe Illustrator 27.7 (Macintosh)</stEvt:softwareAgent>
                  <stEvt:changed>/</stEvt:changed>
               </rdf:li>
            </rdf:Seq>
         </xmpMM:History>
         <illustrator:StartupProfile>Web</illustrator:StartupProfile>
         <illustrator:CreatorSubTool>Adobe Illustrator</illustrator:CreatorSubTool>
         <xmpTPg:NPages>1</xmpTPg:NPages>
         <xmpTPg:HasVisibleTransparency>False</xmpTPg:HasVisibleTransparency>
         <xmpTPg:HasVisibleOverprint>False</xmpTPg:HasVisibleOverprint>
         <xmpTPg:MaxPageSize rdf:parseType="Resource">
            <stDim:w>398.021484</stDim:w>
            <stDim:h>53.295105</stDim:h>
            <stDim:unit>Pixels</stDim:unit>
         </xmpTPg:MaxPageSize>
         <xmpTPg:Fonts>
            <rdf:Bag>
               <rdf:li rdf:parseType="Resource">
                  <stFnt:fontName>ArialRoundedMTBold</stFnt:fontName>
                  <stFnt:fontFamily>Arial Rounded MT Bold</stFnt:fontFamily>
                  <stFnt:fontFace>Regular</stFnt:fontFace>
                  <stFnt:fontType>Open Type</stFnt:fontType>
                  <stFnt:versionString>Version 1.51x</stFnt:versionString>
                  <stFnt:composite>False</stFnt:composite>
                  <stFnt:fontFileName>Arial Rounded Bold.ttf</stFnt:fontFileName>
               </rdf:li>
            </rdf:Bag>
         </xmpTPg:Fonts>
         <xmpTPg:PlateNames>
            <rdf:Seq>
               <rdf:li>Cyan</rdf:li>
               <rdf:li>Magenta</rdf:li>
               <rdf:li>Yellow</rdf:li>
               <rdf:li>Black</rdf:li>
            </rdf:Seq>
         </xmpTPg:PlateNames>
         <xmpTPg:SwatchGroups>
            <rdf:Seq>
               <rdf:li rdf:parseType="Resource">
                  <xmpG:groupName>Default Swatch Group</xmpG:groupName>
                  <xmpG:groupType>0</xmpG:groupType>
                  <xmpG:Colorants>
                     <rdf:Seq>
                        <rdf:li rdf:parseType="Resource">
                           <xmpG:swatchName>White</xmpG:swatchName>
                           <xmpG:mode>RGB</xmpG:mode>
                           <xmpG:type>PROCESS</xmpG:type>
                           <xmpG:red>255</xmpG:red>
                           <xmpG:green>255</xmpG:green>
                           <xmpG:blue>255</xmpG:blue>
                        </rdf:li>
                        <rdf:li rdf:parseType="Resource">
                           <xmpG:swatchName>Black</xmpG:swatchName>
                           <xmpG:mode>RGB</xmpG:mode>
                           <xmpG:type>PROCESS</xmpG:type>
                           <xmpG:red>0</xmpG:red>
                           <xmpG:green>0</xmpG:green>
                           <xmpG:blue>0</xmpG:blue>
                        </rdf:li>
                        <rdf:li rdf:parseType="Resource">
                           <xmpG:swatchName>RGB Red</xmpG:swatchName>
                           <xmpG:mode>RGB</xmpG:mode>
                           <xmpG:type>PROCESS</xmpG:type>
                           <xmpG:red>255</xmpG:red>
                           <xmpG:green>0</xmpG:green>
                           <xmpG:blue>0</xmpG:blue>
                        </rdf:li>
                        <rdf:li rdf:parseType="Resource">
                           <xmpG:swatchName>RGB Yellow</xmpG:swatchName>
                           <xmpG:mode>RGB</xmpG:mode>
                           <xmpG:type>PROCESS</xmpG:type>
                           <xmpG:red>255</xmpG:red>
                           <xmpG:green>255</xmpG:green>
                           <xmpG:blue>0</xmpG:blue>
                        </rdf:li>
                        <rdf:li rdf:parseType="Resource">
                           <xmpG:swatchName>RGB Green</xmpG:swatchName>
                           <xmpG:mode>RGB</xmpG:mode>
                           <xmpG:type>PROCESS</xmpG:type>
                           <xmpG:red>0</xmpG:red>
                           <xmpG:green>255</xmpG:green>
                           <xmpG:blue>0</xmpG:blue>
                        </rdf:li>
                        <rdf:li rdf:parseType="Resource">
                           <xmpG:swatchName>RGB Cyan</xmpG:swatchName>
                           <xmpG:mode>RGB</xmpG:mode>
                           <xmpG:type>PROCESS</xmpG:type>
                           <xmpG:red>0</xmpG:red>
                           <xmpG:green>255</xmpG:green>
                           <xmpG:blue>255</xmpG:blue>
                        </rdf:li>
                        <rdf:li rdf:parseType="Resource">
                           <xmpG:swatchName>RGB Blue</xmpG:swatchName>
                           <xmpG:mode>RGB</xmpG:mode>
                           <xmpG:type>PROCESS</xmpG:type>
                           <xmpG:red>0</xmpG:red>
                           <xmpG:green>0</xmpG:green>
                           <xmpG:blue>255</xmpG:blue>
                        </rdf:li>
                        <rdf:li rdf:parseType="Resource">
                           <xmpG:swatchName>RGB Magenta</xmpG:swatchName>
                           <xmpG:mode>RGB</xmpG:mode>
                           <xmpG:type>PROCESS</xmpG:type>
                           <xmpG:red>255</xmpG:red>
                           <xmpG:green>0</xmpG:green>
                           <xmpG:blue>255</xmpG:blue>
                        </rdf:li>
                        <rdf:li rdf:parseType="Resource">
                           <xmpG:swatchName>R=193 G=39 B=45</xmpG:swatchName>
                           <xmpG:mode>RGB</xmpG:mode>
                           <xmpG:type>PROCESS</xmpG:type>
                           <xmpG:red>193</xmpG:red>
                           <xmpG:green>39</xmpG:green>
                           <xmpG:blue>45</xmpG:blue>
                        </rdf:li>
                        <rdf:li rdf:parseType="Resource">
                           <xmpG:swatchName>R=237 G=28 B=36</xmpG:swatchName>
                           <xmpG:mode>RGB</xmpG:mode>
                           <xmpG:type>PROCESS</xmpG:type>
                           <xmpG:red>237</xmpG:red>
                           <xmpG:green>28</xmpG:green>
                           <xmpG:blue>36</xmpG:blue>
                        </rdf:li>
                        <rdf:li rdf:parseType="Resource">
                           <xmpG:swatchName>R=241 G=90 B=36</xmpG:swatchName>
                           <xmpG:mode>RGB</xmpG:mode>
                           <xmpG:type>PROCESS</xmpG:type>
                           <xmpG:red>241</xmpG:red>
                           <xmpG:green>90</xmpG:green>
                           <xmpG:blue>36</xmpG:blue>
                        </rdf:li>
                        <rdf:li rdf:parseType="Resource">
                           <xmpG:swatchName>R=247 G=147 B=30</xmpG:swatchName>
                           <xmpG:mode>RGB</xmpG:mode>
                           <xmpG:type>PROCESS</xmpG:type>
                           <xmpG:red>247</xmpG:red>
                           <xmpG:green>147</xmpG:green>
                           <xmpG:blue>30</xmpG:blue>
                        </rdf:li>
                        <rdf:li rdf:parseType="Resource">
                           <xmpG:swatchName>R=251 G=176 B=59</xmpG:swatchName>
                           <xmpG:mode>RGB</xmpG:mode>
                           <xmpG:type>PROCESS</xmpG:type>
                           <xmpG:red>251</xmpG:red>
                           <xmpG:green>176</xmpG:green>
                           <xmpG:blue>59</xmpG:blue>
                        </rdf:li>
                        <rdf:li rdf:parseType="Resource">
                           <xmpG:swatchName>R=252 G=238 B=33</xmpG:swatchName>
                           <xmpG:mode>RGB</xmpG:mode>
                           <xmpG:type>PROCESS</xmpG:type>
                           <xmpG:red>252</xmpG:red>
                           <xmpG:green>238</xmpG:green>
                           <xmpG:blue>33</xmpG:blue>
                        </rdf:li>
                        <rdf:li rdf:parseType="Resource">
                           <xmpG:swatchName>R=217 G=224 B=33</xmpG:swatchName>
                           <xmpG:mode>RGB</xmpG:mode>
                           <xmpG:type>PROCESS</xmpG:type>
                           <xmpG:red>217</xmpG:red>
                           <xmpG:green>224</xmpG:green>
                           <xmpG:blue>33</xmpG:blue>
                        </rdf:li>
                        <rdf:li rdf:parseType="Resource">
                           <xmpG:swatchName>R=140 G=198 B=63</xmpG:swatchName>
                           <xmpG:mode>RGB</xmpG:mode>
                           <xmpG:type>PROCESS</xmpG:type>
                           <xmpG:red>140</xmpG:red>
                           <xmpG:green>198</xmpG:green>
                           <xmpG:blue>63</xmpG:blue>
                        </rdf:li>
                        <rdf:li rdf:parseType="Resource">
                           <xmpG:swatchName>R=57 G=181 B=74</xmpG:swatchName>
                           <xmpG:mode>RGB</xmpG:mode>
                           <xmpG:type>PROCESS</xmpG:type>
                           <xmpG:red>57</xmpG:red>
                           <xmpG:green>181</xmpG:green>
                           <xmpG:blue>74</xmpG:blue>
                        </rdf:li>
                        <rdf:li rdf:parseType="Resource">
                           <xmpG:swatchName>R=0 G=146 B=69</xmpG:swatchName>
                           <xmpG:mode>RGB</xmpG:mode>
                           <xmpG:type>PROCESS</xmpG:type>
                           <xmpG:red>0</xmpG:red>
                           <xmpG:green>146</xmpG:green>
                           <xmpG:blue>69</xmpG:blue>
                        </rdf:li>
                        <rdf:li rdf:parseType="Resource">
                           <xmpG:swatchName>R=0 G=104 B=55</xmpG:swatchName>
                           <xmpG:mode>RGB</xmpG:mode>
                           <xmpG:type>PROCESS</xmpG:type>
                           <xmpG:red>0</xmpG:red>
                           <xmpG:green>104</xmpG:green>
                           <xmpG:blue>55</xmpG:blue>
                        </rdf:li>
                        <rdf:li rdf:parseType="Resource">
                           <xmpG:swatchName>R=34 G=181 B=115</xmpG:swatchName>
                           <xmpG:mode>RGB</xmpG:mode>
                           <xmpG:type>PROCESS</xmpG:type>
                           <xmpG:red>34</xmpG:red>
                           <xmpG:green>181</xmpG:green>
                           <xmpG:blue>115</xmpG:blue>
                        </rdf:li>
                        <rdf:li rdf:parseType="Resource">
                           <xmpG:swatchName>R=0 G=169 B=157</xmpG:swatchName>
                           <xmpG:mode>RGB</xmpG:mode>
                           <xmpG:type>PROCESS</xmpG:type>
                           <xmpG:red>0</xmpG:red>
                           <xmpG:green>169</xmpG:green>
                           <xmpG:blue>157</xmpG:blue>
                        </rdf:li>
                        <rdf:li rdf:parseType="Resource">
                           <xmpG:swatchName>R=41 G=171 B=226</xmpG:swatchName>
                           <xmpG:mode>RGB</xmpG:mode>
                           <xmpG:type>PROCESS</xmpG:type>
                           <xmpG:red>41</xmpG:red>
                           <xmpG:green>171</xmpG:green>
                           <xmpG:blue>226</xmpG:blue>
                        </rdf:li>
                        <rdf:li rdf:parseType="Resource">
                           <xmpG:swatchName>R=0 G=113 B=188</xmpG:swatchName>
                           <xmpG:mode>RGB</xmpG:mode>
                           <xmpG:type>PROCESS</xmpG:type>
                           <xmpG:red>0</xmpG:red>
                           <xmpG:green>113</xmpG:green>
                           <xmpG:blue>188</xmpG:blue>
                        </rdf:li>
                        <rdf:li rdf:parseType="Resource">
                           <xmpG:swatchName>R=46 G=49 B=146</xmpG:swatchName>
                           <xmpG:mode>RGB</xmpG:mode>
                           <xmpG:type>PROCESS</xmpG:type>
                           <xmpG:red>46</xmpG:red>
                           <xmpG:green>49</xmpG:green>
                           <xmpG:blue>146</xmpG:blue>
                        </rdf:li>
                        <rdf:li rdf:parseType="Resource">
                           <xmpG:swatchName>R=27 G=20 B=100</xmpG:swatchName>
                           <xmpG:mode>RGB</xmpG:mode>
                           <xmpG:type>PROCESS</xmpG:type>
                           <xmpG:red>27</xmpG:red>
                           <xmpG:green>20</xmpG:green>
                           <xmpG:blue>100</xmpG:blue>
                        </rdf:li>
                        <rdf:li rdf:parseType="Resource">
                           <xmpG:swatchName>R=102 G=45 B=145</xmpG:swatchName>
                           <xmpG:mode>RGB</xmpG:mode>
                           <xmpG:type>PROCESS</xmpG:type>
                           <xmpG:red>102</xmpG:red>
                           <xmpG:green>45</xmpG:green>
                           <xmpG:blue>145</xmpG:blue>
                        </rdf:li>
                        <rdf:li rdf:parseType="Resource">
                           <xmpG:swatchName>R=147 G=39 B=143</xmpG:swatchName>
                           <xmpG:mode>RGB</xmpG:mode>
                           <xmpG:type>PROCESS</xmpG:type>
                           <xmpG:red>147</xmpG:red>
                           <xmpG:green>39</xmpG:green>
                           <xmpG:blue>143</xmpG:blue>
                        </rdf:li>
                        <rdf:li rdf:parseType="Resource">
                           <xmpG:swatchName>R=158 G=0 B=93</xmpG:swatchName>
                           <xmpG:mode>RGB</xmpG:mode>
                           <xmpG:type>PROCESS</xmpG:type>
                           <xmpG:red>158</xmpG:red>
                           <xmpG:green>0</xmpG:green>
                           <xmpG:blue>93</xmpG:blue>
                        </rdf:li>
                        <rdf:li rdf:parseType="Resource">
                           <xmpG:swatchName>R=212 G=20 B=90</xmpG:swatchName>
                           <xmpG:mode>RGB</xmpG:mode>
                           <xmpG:type>PROCESS</xmpG:type>
                           <xmpG:red>212</xmpG:red>
                           <xmpG:green>20</xmpG:green>
                           <xmpG:blue>90</xmpG:blue>
                        </rdf:li>
                        <rdf:li rdf:parseType="Resource">
                           <xmpG:swatchName>R=237 G=30 B=121</xmpG:swatchName>
                           <xmpG:mode>RGB</xmpG:mode>
                           <xmpG:type>PROCESS</xmpG:type>
                           <xmpG:red>237</xmpG:red>
                           <xmpG:green>30</xmpG:green>
                           <xmpG:blue>121</xmpG:blue>
                        </rdf:li>
                        <rdf:li rdf:parseType="Resource">
                           <xmpG:swatchName>R=199 G=178 B=153</xmpG:swatchName>
                           <xmpG:mode>RGB</xmpG:mode>
                           <xmpG:type>PROCESS</xmpG:type>
                           <xmpG:red>199</xmpG:red>
                           <xmpG:green>178</xmpG:green>
                           <xmpG:blue>153</xmpG:blue>
                        </rdf:li>
                        <rdf:li rdf:parseType="Resource">
                           <xmpG:swatchName>R=153 G=134 B=117</xmpG:swatchName>
                           <xmpG:mode>RGB</xmpG:mode>
                           <xmpG:type>PROCESS</xmpG:type>
                           <xmpG:red>153</xmpG:red>
                           <xmpG:green>134</xmpG:green>
                           <xmpG:blue>117</xmpG:blue>
                        </rdf:li>
                        <rdf:li rdf:parseType="Resource">
                           <xmpG:swatchName>R=115 G=99 B=87</xmpG:swatchName>
                           <xmpG:mode>RGB</xmpG:mode>
                           <xmpG:type>PROCESS</xmpG:type>
                           <xmpG:red>115</xmpG:red>
                           <xmpG:green>99</xmpG:green>
                           <xmpG:blue>87</xmpG:blue>
                        </rdf:li>
                        <rdf:li rdf:parseType="Resource">
                           <xmpG:swatchName>R=83 G=71 B=65</xmpG:swatchName>
                           <xmpG:mode>RGB</xmpG:mode>
                           <xmpG:type>PROCESS</xmpG:type>
                           <xmpG:red>83</xmpG:red>
                           <xmpG:green>71</xmpG:green>
                           <xmpG:blue>65</xmpG:blue>
                        </rdf:li>
                        <rdf:li rdf:parseType="Resource">
                           <xmpG:swatchName>R=198 G=156 B=109</xmpG:swatchName>
                           <xmpG:mode>RGB</xmpG:mode>
                           <xmpG:type>PROCESS</xmpG:type>
                           <xmpG:red>198</xmpG:red>
                           <xmpG:green>156</xmpG:green>
                           <xmpG:blue>109</xmpG:blue>
                        </rdf:li>
                        <rdf:li rdf:parseType="Resource">
                           <xmpG:swatchName>R=166 G=124 B=82</xmpG:swatchName>
                           <xmpG:mode>RGB</xmpG:mode>
                           <xmpG:type>PROCESS</xmpG:type>
                           <xmpG:red>166</xmpG:red>
                           <xmpG:green>124</xmpG:green>
                           <xmpG:blue>82</xmpG:blue>
                        </rdf:li>
                        <rdf:li rdf:parseType="Resource">
                           <xmpG:swatchName>R=140 G=98 B=57</xmpG:swatchName>
                           <xmpG:mode>RGB</xmpG:mode>
                           <xmpG:type>PROCESS</xmpG:type>
                           <xmpG:red>140</xmpG:red>
                           <xmpG:green>98</xmpG:green>
                           <xmpG:blue>57</xmpG:blue>
                        </rdf:li>
                        <rdf:li rdf:parseType="Resource">
                           <xmpG:swatchName>R=117 G=76 B=36</xmpG:swatchName>
                           <xmpG:mode>RGB</xmpG:mode>
                           <xmpG:type>PROCESS</xmpG:type>
                           <xmpG:red>117</xmpG:red>
                           <xmpG:green>76</xmpG:green>
                           <xmpG:blue>36</xmpG:blue>
                        </rdf:li>
                        <rdf:li rdf:parseType="Resource">
                           <xmpG:swatchName>R=96 G=56 B=19</xmpG:swatchName>
                           <xmpG:mode>RGB</xmpG:mode>
                           <xmpG:type>PROCESS</xmpG:type>
                           <xmpG:red>96</xmpG:red>
                           <xmpG:green>56</xmpG:green>
                           <xmpG:blue>19</xmpG:blue>
                        </rdf:li>
                        <rdf:li rdf:parseType="Resource">
                           <xmpG:swatchName>R=66 G=33 B=11</xmpG:swatchName>
                           <xmpG:mode>RGB</xmpG:mode>
                           <xmpG:type>PROCESS</xmpG:type>
                           <xmpG:red>66</xmpG:red>
                           <xmpG:green>33</xmpG:green>
                           <xmpG:blue>11</xmpG:blue>
                        </rdf:li>
                     </rdf:Seq>
                  </xmpG:Colorants>
               </rdf:li>
               <rdf:li rdf:parseType="Resource">
                  <xmpG:groupName>Grays</xmpG:groupName>
                  <xmpG:groupType>1</xmpG:groupType>
                  <xmpG:Colorants>
                     <rdf:Seq>
                        <rdf:li rdf:parseType="Resource">
                           <xmpG:swatchName>R=0 G=0 B=0</xmpG:swatchName>
                           <xmpG:mode>RGB</xmpG:mode>
                           <xmpG:type>PROCESS</xmpG:type>
                           <xmpG:red>0</xmpG:red>
                           <xmpG:green>0</xmpG:green>
                           <xmpG:blue>0</xmpG:blue>
                        </rdf:li>
                        <rdf:li rdf:parseType="Resource">
                           <xmpG:swatchName>R=26 G=26 B=26</xmpG:swatchName>
                           <xmpG:mode>RGB</xmpG:mode>
                           <xmpG:type>PROCESS</xmpG:type>
                           <xmpG:red>26</xmpG:red>
                           <xmpG:green>26</xmpG:green>
                           <xmpG:blue>26</xmpG:blue>
                        </rdf:li>
                        <rdf:li rdf:parseType="Resource">
                           <xmpG:swatchName>R=51 G=51 B=51</xmpG:swatchName>
                           <xmpG:mode>RGB</xmpG:mode>
                           <xmpG:type>PROCESS</xmpG:type>
                           <xmpG:red>51</xmpG:red>
                           <xmpG:green>51</xmpG:green>
                           <xmpG:blue>51</xmpG:blue>
                        </rdf:li>
                        <rdf:li rdf:parseType="Resource">
                           <xmpG:swatchName>R=77 G=77 B=77</xmpG:swatchName>
                           <xmpG:mode>RGB</xmpG:mode>
                           <xmpG:type>PROCESS</xmpG:type>
                           <xmpG:red>77</xmpG:red>
                           <xmpG:green>77</xmpG:green>
                           <xmpG:blue>77</xmpG:blue>
                        </rdf:li>
                        <rdf:li rdf:parseType="Resource">
                           <xmpG:swatchName>R=102 G=102 B=102</xmpG:swatchName>
                           <xmpG:mode>RGB</xmpG:mode>
                           <xmpG:type>PROCESS</xmpG:type>
                           <xmpG:red>102</xmpG:red>
                           <xmpG:green>102</xmpG:green>
                           <xmpG:blue>102</xmpG:blue>
                        </rdf:li>
                        <rdf:li rdf:parseType="Resource">
                           <xmpG:swatchName>R=128 G=128 B=128</xmpG:swatchName>
                           <xmpG:mode>RGB</xmpG:mode>
                           <xmpG:type>PROCESS</xmpG:type>
                           <xmpG:red>128</xmpG:red>
                           <xmpG:green>128</xmpG:green>
                           <xmpG:blue>128</xmpG:blue>
                        </rdf:li>
                        <rdf:li rdf:parseType="Resource">
                           <xmpG:swatchName>R=153 G=153 B=153</xmpG:swatchName>
                           <xmpG:mode>RGB</xmpG:mode>
                           <xmpG:type>PROCESS</xmpG:type>
                           <xmpG:red>153</xmpG:red>
                           <xmpG:green>153</xmpG:green>
                           <xmpG:blue>153</xmpG:blue>
                        </rdf:li>
                        <rdf:li rdf:parseType="Resource">
                           <xmpG:swatchName>R=179 G=179 B=179</xmpG:swatchName>
                           <xmpG:mode>RGB</xmpG:mode>
                           <xmpG:type>PROCESS</xmpG:type>
                           <xmpG:red>179</xmpG:red>
                           <xmpG:green>179</xmpG:green>
                           <xmpG:blue>179</xmpG:blue>
                        </rdf:li>
                        <rdf:li rdf:parseType="Resource">
                           <xmpG:swatchName>R=204 G=204 B=204</xmpG:swatchName>
                           <xmpG:mode>RGB</xmpG:mode>
                           <xmpG:type>PROCESS</xmpG:type>
                           <xmpG:red>204</xmpG:red>
                           <xmpG:green>204</xmpG:green>
                           <xmpG:blue>204</xmpG:blue>
                        </rdf:li>
                        <rdf:li rdf:parseType="Resource">
                           <xmpG:swatchName>R=230 G=230 B=230</xmpG:swatchName>
                           <xmpG:mode>RGB</xmpG:mode>
                           <xmpG:type>PROCESS</xmpG:type>
                           <xmpG:red>230</xmpG:red>
                           <xmpG:green>230</xmpG:green>
                           <xmpG:blue>230</xmpG:blue>
                        </rdf:li>
                        <rdf:li rdf:parseType="Resource">
                           <xmpG:swatchName>R=242 G=242 B=242</xmpG:swatchName>
                           <xmpG:mode>RGB</xmpG:mode>
                           <xmpG:type>PROCESS</xmpG:type>
                           <xmpG:red>242</xmpG:red>
                           <xmpG:green>242</xmpG:green>
                           <xmpG:blue>242</xmpG:blue>
                        </rdf:li>
                     </rdf:Seq>
                  </xmpG:Colorants>
               </rdf:li>
               <rdf:li rdf:parseType="Resource">
                  <xmpG:groupName>Web Color Group</xmpG:groupName>
                  <xmpG:groupType>1</xmpG:groupType>
                  <xmpG:Colorants>
                     <rdf:Seq>
                        <rdf:li rdf:parseType="Resource">
                           <xmpG:swatchName>R=63 G=169 B=245</xmpG:swatchName>
                           <xmpG:mode>RGB</xmpG:mode>
                           <xmpG:type>PROCESS</xmpG:type>
                           <xmpG:red>63</xmpG:red>
                           <xmpG:green>169</xmpG:green>
                           <xmpG:blue>245</xmpG:blue>
                        </rdf:li>
                        <rdf:li rdf:parseType="Resource">
                           <xmpG:swatchName>R=122 G=201 B=67</xmpG:swatchName>
                           <xmpG:mode>RGB</xmpG:mode>
                           <xmpG:type>PROCESS</xmpG:type>
                           <xmpG:red>122</xmpG:red>
                           <xmpG:green>201</xmpG:green>
                           <xmpG:blue>67</xmpG:blue>
                        </rdf:li>
                        <rdf:li rdf:parseType="Resource">
                           <xmpG:swatchName>R=255 G=147 B=30</xmpG:swatchName>
                           <xmpG:mode>RGB</xmpG:mode>
                           <xmpG:type>PROCESS</xmpG:type>
                           <xmpG:red>255</xmpG:red>
                           <xmpG:green>147</xmpG:green>
                           <xmpG:blue>30</xmpG:blue>
                        </rdf:li>
                        <rdf:li rdf:parseType="Resource">
                           <xmpG:swatchName>R=255 G=29 B=37</xmpG:swatchName>
                           <xmpG:mode>RGB</xmpG:mode>
                           <xmpG:type>PROCESS</xmpG:type>
                           <xmpG:red>255</xmpG:red>
                           <xmpG:green>29</xmpG:green>
                           <xmpG:blue>37</xmpG:blue>
                        </rdf:li>
                        <rdf:li rdf:parseType="Resource">
                           <xmpG:swatchName>R=255 G=123 B=172</xmpG:swatchName>
                           <xmpG:mode>RGB</xmpG:mode>
                           <xmpG:type>PROCESS</xmpG:type>
                           <xmpG:red>255</xmpG:red>
                           <xmpG:green>123</xmpG:green>
                           <xmpG:blue>172</xmpG:blue>
                        </rdf:li>
                        <rdf:li rdf:parseType="Resource">
                           <xmpG:swatchName>R=189 G=204 B=212</xmpG:swatchName>
                           <xmpG:mode>RGB</xmpG:mode>
                           <xmpG:type>PROCESS</xmpG:type>
                           <xmpG:red>189</xmpG:red>
                           <xmpG:green>204</xmpG:green>
                           <xmpG:blue>212</xmpG:blue>
                        </rdf:li>
                     </rdf:Seq>
                  </xmpG:Colorants>
               </rdf:li>
            </rdf:Seq>
         </xmpTPg:SwatchGroups>
         <pdf:Producer>Adobe PDF library 17.00</pdf:Producer>
         <pdfx:CreatorVersion>21.0.0</pdfx:CreatorVersion>
      </rdf:Description>
   </rdf:RDF>
</x:xmpmeta>





















<?xpacket end="w"?>
	</metadata>
<g>
	<path fill="#6c98c6" d="M45.94,36.14c0,1.64-0.4,3.42-1.21,5.33c-0.81,1.91-2.08,3.79-3.81,5.62c-1.73,1.84-3.95,3.33-6.64,4.48
		c-2.7,1.15-5.84,1.72-9.42,1.72c-2.72,0-5.19-0.26-7.42-0.77c-2.23-0.52-4.25-1.32-6.06-2.41c-1.82-1.09-3.49-2.53-5.01-4.31
		c-1.36-1.62-2.52-3.43-3.48-5.43c-0.96-2-1.68-4.14-2.16-6.42c-0.48-2.27-0.72-4.69-0.72-7.24c0-4.15,0.6-7.86,1.81-11.14
		C3,12.29,4.73,9.49,6.98,7.15c2.25-2.33,4.89-4.11,7.91-5.33C17.92,0.61,21.14,0,24.56,0c4.17,0,7.89,0.83,11.14,2.5
		c3.26,1.66,5.75,3.72,7.49,6.17c1.73,2.45,2.6,4.76,2.6,6.94c0,1.2-0.42,2.25-1.27,3.16s-1.86,1.37-3.06,1.37
		c-1.34,0-2.34-0.32-3.01-0.95s-1.41-1.72-2.23-3.27c-1.36-2.55-2.96-4.46-4.8-5.73c-1.84-1.27-4.11-1.9-6.8-1.9
		c-4.29,0-7.71,1.63-10.25,4.89c-2.54,3.26-3.81,7.89-3.81,13.89c0,4.01,0.56,7.34,1.69,10c1.12,2.66,2.72,4.65,4.78,5.96
		C19.1,44.34,21.51,45,24.28,45c3,0,5.54-0.74,7.61-2.23c2.07-1.49,3.64-3.67,4.69-6.56c0.44-1.36,1-2.47,1.65-3.32
		c0.66-0.86,1.71-1.28,3.16-1.28c1.24,0,2.31,0.43,3.2,1.3C45.49,33.77,45.94,34.85,45.94,36.14z"/>
	<path fill="#6c98c6" d="M64.04,5.83v14.24c1.22-1.41,2.41-2.52,3.57-3.34c1.16-0.82,2.44-1.44,3.85-1.85c1.41-0.41,2.92-0.62,4.54-0.62
		c2.44,0,4.6,0.52,6.49,1.55c1.89,1.03,3.37,2.53,4.45,4.5c0.68,1.15,1.14,2.43,1.37,3.85c0.23,1.42,0.35,3.05,0.35,4.9v18.39
		c0,1.92-0.44,3.38-1.32,4.36s-2.04,1.48-3.5,1.48c-3.16,0-4.75-1.95-4.75-5.84V31.25c0-3.07-0.46-5.43-1.37-7.08
		s-2.65-2.48-5.2-2.48c-1.71,0-3.25,0.49-4.62,1.46c-1.37,0.97-2.4,2.3-3.08,3.99c-0.52,1.43-0.77,3.97-0.77,7.63v12.69
		c0,1.9-0.43,3.35-1.28,4.34c-0.86,1-2.04,1.49-3.57,1.49c-3.16,0-4.75-1.95-4.75-5.84V5.83c0-1.95,0.42-3.4,1.25-4.38
		c0.83-0.97,2-1.46,3.5-1.46c1.52,0,2.71,0.49,3.57,1.48C63.61,2.46,64.04,3.91,64.04,5.83z"/>
	<path fill="#6c98c6" d="M122.4,47.88c-2.32,1.81-4.56,3.16-6.73,4.06c-2.17,0.9-4.6,1.35-7.29,1.35c-2.46,0-4.62-0.49-6.49-1.46
		s-3.3-2.29-4.31-3.96c-1.01-1.66-1.51-3.47-1.51-5.41c0-2.62,0.83-4.86,2.5-6.71c1.66-1.85,3.95-3.09,6.86-3.73
		c0.61-0.14,2.12-0.46,4.54-0.95c2.41-0.49,4.48-0.94,6.21-1.35c1.72-0.41,3.59-0.91,5.61-1.49c-0.12-2.53-0.63-4.39-1.53-5.57
		c-0.9-1.18-2.77-1.78-5.61-1.78c-2.44,0-4.27,0.34-5.5,1.02c-1.23,0.68-2.29,1.7-3.16,3.06c-0.88,1.36-1.5,2.26-1.86,2.69
		c-0.36,0.43-1.14,0.65-2.34,0.65c-1.08,0-2.01-0.35-2.79-1.04c-0.79-0.69-1.18-1.58-1.18-2.65c0-1.69,0.6-3.33,1.79-4.92
		c1.2-1.59,3.06-2.91,5.59-3.94c2.53-1.03,5.68-1.55,9.46-1.55c4.22,0,7.54,0.5,9.95,1.49c2.41,1,4.12,2.57,5.12,4.73
		c1,2.16,1.49,5.02,1.49,8.58c0,2.25-0.01,4.16-0.02,5.73c-0.01,1.57-0.03,3.32-0.05,5.24c0,1.81,0.3,3.69,0.9,5.64
		c0.6,1.96,0.9,3.22,0.9,3.78c0,0.98-0.46,1.88-1.39,2.69c-0.93,0.81-1.97,1.21-3.15,1.21c-0.98,0-1.96-0.46-2.92-1.39
		C124.5,50.98,123.48,49.64,122.4,47.88z M121.77,33.99c-1.41,0.52-3.45,1.06-6.13,1.63c-2.68,0.57-4.54,1-5.57,1.27
		c-1.03,0.27-2.02,0.8-2.95,1.58c-0.94,0.79-1.41,1.88-1.41,3.29c0,1.45,0.55,2.69,1.65,3.71c1.1,1.02,2.54,1.53,4.32,1.53
		c1.9,0,3.65-0.42,5.26-1.25c1.6-0.83,2.78-1.9,3.53-3.22c0.87-1.45,1.3-3.84,1.3-7.17V33.99z"/>
	<path fill="#6c98c6" d="M140.93,47.46V5.83c0-1.92,0.43-3.38,1.28-4.36c0.86-0.98,2.01-1.48,3.46-1.48c1.45,0,2.62,0.49,3.52,1.46
		c0.89,0.97,1.34,2.43,1.34,4.38v41.62c0,1.95-0.45,3.4-1.35,4.38c-0.9,0.97-2.07,1.46-3.5,1.46c-1.41,0-2.55-0.5-3.43-1.51
		S140.93,49.33,140.93,47.46z"/>
	<path fill="#6c98c6" d="M184.35,48.9l-8.47-13.92l-5.2,4.92v7.63c0,1.85-0.49,3.28-1.46,4.27s-2.09,1.49-3.36,1.49c-1.48,0-2.64-0.49-3.48-1.48
		s-1.27-2.44-1.27-4.36V6.54c0-2.13,0.41-3.76,1.23-4.87c0.82-1.11,1.99-1.67,3.52-1.67c1.48,0,2.65,0.5,3.52,1.51
		c0.87,1.01,1.3,2.5,1.3,4.46v23.27l10.79-11.32c1.34-1.41,2.36-2.37,3.06-2.88c0.7-0.52,1.56-0.77,2.57-0.77
		c1.2,0,2.19,0.38,2.99,1.14c0.8,0.76,1.2,1.72,1.2,2.87c0,1.41-1.3,3.28-3.9,5.62l-5.1,4.68l9.84,15.47
		c0.73,1.15,1.25,2.02,1.56,2.62s0.47,1.17,0.47,1.71c0,1.52-0.42,2.72-1.25,3.6s-1.93,1.32-3.29,1.32c-1.17,0-2.07-0.32-2.71-0.95
		S185.42,50.57,184.35,48.9z"/>
	<path fill="#6c98c6" d="M210.57,5.48v14.66c1.8-1.88,3.64-3.31,5.52-4.31c1.88-1,4.2-1.49,6.96-1.49c3.19,0,5.98,0.76,8.38,2.27
		s4.27,3.7,5.59,6.57c1.32,2.87,1.99,6.28,1.99,10.21c0,2.91-0.37,5.57-1.11,8s-1.81,4.53-3.22,6.31c-1.41,1.78-3.11,3.16-5.12,4.13
		s-4.21,1.46-6.63,1.46c-1.48,0-2.87-0.18-4.17-0.53s-2.41-0.81-3.32-1.39c-0.91-0.57-1.69-1.17-2.34-1.78
		c-0.64-0.61-1.49-1.52-2.55-2.74v0.95c0,1.81-0.43,3.17-1.3,4.1s-1.97,1.39-3.3,1.39c-1.36,0-2.44-0.46-3.25-1.39
		s-1.21-2.29-1.21-4.1V5.9c0-1.95,0.39-3.42,1.18-4.41c0.79-1,1.88-1.49,3.29-1.49c1.48,0,2.61,0.47,3.41,1.42
		S210.57,3.72,210.57,5.48z M211.03,33.99c0,3.82,0.87,6.76,2.62,8.81c1.75,2.05,4.04,3.08,6.87,3.08c2.41,0,4.49-1.05,6.24-3.15
		c1.75-2.1,2.62-5.1,2.62-9.02c0-2.53-0.36-4.71-1.09-6.54s-1.76-3.24-3.09-4.24c-1.34-1-2.89-1.49-4.68-1.49
		c-1.83,0-3.46,0.5-4.89,1.49c-1.43,1-2.55,2.44-3.38,4.32C211.44,29.15,211.03,31.39,211.03,33.99z"/>
	<path fill="#6c98c6" d="M282.64,33.78c0,2.86-0.45,5.5-1.34,7.91c-0.89,2.41-2.18,4.49-3.87,6.22c-1.69,1.73-3.7,3.06-6.05,3.99
		s-4.98,1.39-7.91,1.39c-2.91,0-5.52-0.47-7.84-1.41s-4.33-2.28-6.03-4.03c-1.7-1.75-2.99-3.81-3.87-6.19
		c-0.88-2.38-1.32-5.01-1.32-7.89c0-2.91,0.45-5.57,1.34-7.98c0.89-2.41,2.17-4.48,3.83-6.19c1.66-1.71,3.68-3.03,6.05-3.96
		c2.37-0.93,4.98-1.39,7.84-1.39c2.91,0,5.54,0.47,7.91,1.41c2.37,0.94,4.39,2.27,6.08,4.01c1.69,1.73,2.97,3.8,3.85,6.19
		C282.2,28.26,282.64,30.9,282.64,33.78z M273.01,33.78c0-3.91-0.86-6.96-2.58-9.14s-4.04-3.27-6.94-3.27
		c-1.88,0-3.53,0.49-4.96,1.46c-1.43,0.97-2.53,2.41-3.3,4.31s-1.16,4.11-1.16,6.64c0,2.51,0.38,4.7,1.14,6.57
		c0.76,1.88,1.85,3.31,3.27,4.31c1.42,1,3.09,1.49,5.01,1.49c2.91,0,5.22-1.1,6.94-3.29C272.15,40.68,273.01,37.65,273.01,33.78z"/>
	<path fill="#6c98c6" d="M314.46,47.88c-2.32,1.81-4.56,3.16-6.73,4.06s-4.6,1.35-7.29,1.35c-2.46,0-4.62-0.49-6.49-1.46s-3.3-2.29-4.31-3.96
		c-1.01-1.66-1.51-3.47-1.51-5.41c0-2.62,0.83-4.86,2.5-6.71c1.66-1.85,3.95-3.09,6.86-3.73c0.61-0.14,2.12-0.46,4.54-0.95
		s4.48-0.94,6.21-1.35c1.72-0.41,3.59-0.91,5.61-1.49c-0.12-2.53-0.63-4.39-1.53-5.57c-0.9-1.18-2.77-1.78-5.61-1.78
		c-2.44,0-4.27,0.34-5.5,1.02c-1.23,0.68-2.29,1.7-3.16,3.06c-0.88,1.36-1.5,2.26-1.86,2.69c-0.36,0.43-1.14,0.65-2.34,0.65
		c-1.08,0-2.01-0.35-2.79-1.04c-0.79-0.69-1.18-1.58-1.18-2.65c0-1.69,0.6-3.33,1.79-4.92c1.2-1.59,3.06-2.91,5.59-3.94
		c2.53-1.03,5.68-1.55,9.46-1.55c4.22,0,7.54,0.5,9.95,1.49c2.41,1,4.12,2.57,5.12,4.73c1,2.16,1.49,5.02,1.49,8.58
		c0,2.25-0.01,4.16-0.02,5.73c-0.01,1.57-0.03,3.32-0.05,5.24c0,1.81,0.3,3.69,0.9,5.64c0.6,1.96,0.9,3.22,0.9,3.78
		c0,0.98-0.46,1.88-1.39,2.69s-1.97,1.21-3.15,1.21c-0.98,0-1.96-0.46-2.92-1.39S315.54,49.64,314.46,47.88z M313.83,33.99
		c-1.41,0.52-3.45,1.06-6.13,1.63c-2.68,0.57-4.54,1-5.57,1.27c-1.03,0.27-2.02,0.8-2.95,1.58c-0.94,0.79-1.41,1.88-1.41,3.29
		c0,1.45,0.55,2.69,1.65,3.71s2.54,1.53,4.32,1.53c1.9,0,3.65-0.42,5.26-1.25c1.61-0.83,2.78-1.9,3.53-3.22
		c0.87-1.45,1.3-3.84,1.3-7.17V33.99z"/>
	<path fill="#6c98c6" d="M342.51,39.44v8.02c0,1.95-0.46,3.4-1.37,4.38s-2.07,1.46-3.48,1.46c-1.38,0-2.52-0.49-3.41-1.48s-1.34-2.44-1.34-4.36
		V20.74c0-4.31,1.56-6.47,4.68-6.47c1.59,0,2.74,0.5,3.45,1.51c0.7,1.01,1.09,2.5,1.16,4.46c1.15-1.97,2.33-3.46,3.53-4.46
		c1.21-1.01,2.82-1.51,4.83-1.51s3.97,0.5,5.87,1.51c1.9,1.01,2.85,2.34,2.85,4.01c0,1.17-0.4,2.14-1.21,2.9
		c-0.81,0.76-1.68,1.14-2.62,1.14c-0.35,0-1.2-0.22-2.55-0.65c-1.35-0.43-2.54-0.65-3.57-0.65c-1.41,0-2.55,0.37-3.45,1.11
		s-1.58,1.83-2.07,3.29c-0.49,1.45-0.83,3.18-1.02,5.19S342.51,36.56,342.51,39.44z"/>
	<path fill="#6c98c6" d="M388.95,47.81v-0.95c-1.29,1.48-2.56,2.68-3.81,3.6c-1.25,0.93-2.61,1.63-4.08,2.11s-3.06,0.72-4.8,0.72
		c-2.3,0-4.42-0.49-6.38-1.46s-3.65-2.36-5.08-4.17c-1.43-1.8-2.51-3.93-3.25-6.36c-0.74-2.44-1.11-5.07-1.11-7.91
		c0-6,1.46-10.68,4.39-14.03c2.93-3.35,6.79-5.03,11.57-5.03c2.77,0,5.1,0.47,7,1.42s3.75,2.41,5.55,4.38V5.97
		c0-1.97,0.39-3.46,1.18-4.46c0.79-1.01,1.9-1.51,3.36-1.51s2.57,0.46,3.36,1.39c0.79,0.93,1.18,2.29,1.18,4.1v42.33
		c0,1.83-0.42,3.2-1.27,4.11s-1.93,1.37-3.27,1.37c-1.31,0-2.4-0.47-3.25-1.42S388.95,49.57,388.95,47.81z M370.08,33.71
		c0,2.6,0.4,4.82,1.21,6.64s1.92,3.21,3.32,4.13c1.41,0.93,2.94,1.39,4.61,1.39c1.69,0,3.23-0.44,4.62-1.32s2.51-2.23,3.34-4.04
		c0.83-1.82,1.25-4.08,1.25-6.8c0-2.55-0.42-4.75-1.25-6.59c-0.83-1.84-1.96-3.25-3.38-4.22c-1.42-0.97-2.97-1.46-4.66-1.46
		c-1.76,0-3.33,0.5-4.71,1.49c-1.38,1-2.46,2.43-3.22,4.29S370.08,31.25,370.08,33.71z"/>
</g>
<g>
</g>
<g>
</g>
<g>
</g>
<g>
</g>
<g>
</g>
<g>
</g>
<g>
</g>
<g>
</g>
<g>
</g>
<g>
</g>
<g>
</g>
<g>
</g>
<g>
</g>
<g>
</g>
<g>
</g>
</svg>
